<svg xmlns="http://www.w3.org/2000/svg" fill="none" viewBox="0 0 13 13">
    <g clip-path="url(#a)">
        <path fill="#007AFF" d="M4.91932 12.9999c.32443 0 .58096-.1399.76204-.4124L12.8113 1.62765c.1359-.2136.1887-.37563.1887-.54504 0-.4051-.2716-.670256-.6866-.670256-.3018 0-.4678.09575-.6488.375636L4.88913 11.3279 1.37318 6.83503c-.18862-.2578-.377246-.36091-.648863-.36091C.294253 6.47412 0 6.76137 0 7.16647c0 .16941.0754496.36091.218804.53765L4.13464 12.5727c.22635.2873.46025.4272.78468.4272Z"/>
    </g>
    <defs>
        <clipPath id="a">
            <path fill="#fff" d="M0 0h13v13H0z"/>
        </clipPath>
    </defs>
</svg>